<svg width="30" height="30" viewBox="0 0 30 30" fill="none" xmlns="http://www.w3.org/2000/svg">
<g opacity="0.05">
<path d="M17.8897 14.9937L6.66682 26.2171C6.3578 26.5254 6.1878 26.9376 6.1878 27.3771C6.1878 27.8168 6.3578 28.2288 6.66682 28.5376L7.65024 29.5205C7.95877 29.8298 8.37121 30 8.81072 30C9.25024 30 9.66219 29.8298 9.97097 29.5205L23.3337 16.158C23.6437 15.8483 23.8134 15.4344 23.8122 14.9944C23.8134 14.5524 23.6439 14.139 23.3337 13.829L9.98341 0.479512C9.67463 0.170244 9.26268 -7.15256e-07 8.82292 -7.15256e-07C8.38341 -7.15256e-07 7.97146 0.170244 7.66243 0.479512L6.67926 1.46244C6.03951 2.10219 6.03951 3.14366 6.67926 3.78317L17.8897 14.9937Z" fill="#F2F2F2"/>
</g>
</svg>
